<svg id="1c52d171-2888-4e46-9c9d-b3a933d229d1" data-name="Laag 1" xmlns="http://www.w3.org/2000/svg" viewBox="0 0 641 641"><defs><style>.\35 37d1866-467a-45bb-a665-208b6c2f297d{fill:#0085ca;stroke:#000;stroke-miterlimit:10;}.\34 44da903-d446-46ec-9e3d-7807cb1b2377{fill:#ee2e2f;}.\34 e4f8f48-b202-490f-b240-291fab1e4594{fill:#fff;}</style></defs><title>kw1c</title><rect class="537d1866-467a-45bb-a665-208b6c2f297d" x="0.5" y="0.5" width="640" height="640"/><polygon class="444da903-d446-46ec-9e3d-7807cb1b2377" points="271.82 0.5 247.69 84.69 295.95 84.69 271.82 0.5"/><polygon class="444da903-d446-46ec-9e3d-7807cb1b2377" points="320.44 0.5 296.3 84.69 344.57 84.69 320.44 0.5"/><polygon class="444da903-d446-46ec-9e3d-7807cb1b2377" points="369.02 0.5 344.89 84.69 393.17 84.69 369.02 0.5"/><polygon class="4e4f8f48-b202-490f-b240-291fab1e4594" points="69.75 103.31 67.71 104.85 42.7 173.23 42.7 105.8 40.49 103.31 2.7 103.31 0.5 105.8 0.5 316.6 2.7 319.08 40.49 319.08 42.7 316.6 42.7 240.59 47.16 227.59 73.47 317.38 75.57 319.08 114.8 319.08 116.87 315.73 76.31 192.26 113.97 106.91 112 103.31 69.75 103.31"/><path class="4e4f8f48-b202-490f-b240-291fab1e4594" d="M169.1,98.71c-37.7,0-56.8,26-56.8,77.2v70.84c0,49.68,19.63,75.91,56.8,75.91s56.9-26.61,56.9-77V175.9c0-51.22-19.15-77.19-56.9-77.19m-14.61,66.55c0-19,4.92-28.66,14.61-28.66s14.71,9.65,14.71,28.66v91.11c0,19.21-4.81,28.54-14.71,28.54-9.7,0-14.61-9.6-14.61-28.54V165.26Z" transform="translate(0.5 0.5)"/><polygon class="4e4f8f48-b202-490f-b240-291fab1e4594" points="308.04 103.2 305.84 105.69 305.84 203.63 269.08 104.72 267.04 103.2 239.85 103.2 237.65 105.69 237.65 316.59 239.85 319.08 272.33 319.08 274.54 316.59 274.54 212.7 311.18 317.51 313.24 319.08 339.39 319.08 341.59 316.59 341.59 105.69 339.39 103.2 308.04 103.2"/><polygon class="4e4f8f48-b202-490f-b240-291fab1e4594" points="357.34 103.31 355.14 105.81 355.14 316.6 357.34 319.08 395.11 319.08 397.32 316.6 397.32 105.81 395.11 103.31 357.34 103.31"/><polygon class="4e4f8f48-b202-490f-b240-291fab1e4594" points="481.26 103.2 479.05 105.69 479.05 203.63 442.3 104.72 440.26 103.2 413.07 103.2 410.86 105.69 410.86 316.59 413.07 319.08 445.56 319.08 447.76 316.59 447.76 212.7 484.4 317.51 486.44 319.08 512.6 319.08 514.81 316.59 514.81 105.69 512.6 103.2 481.26 103.2"/><path class="4e4f8f48-b202-490f-b240-291fab1e4594" d="M637.78,205.17H578.63l-2.21,2.48v30.56l2.21,2.5h19.18v14.37c0,19.72-5,29.71-15,29.71-10.17,0-15.12-9.34-15.12-28.54v-91c0-7.09,0-28.66,15.12-28.66,13.29,0,15.13,15.64,15.13,32.52v14.76l2.2,2.49h36.12l2.21-2.49v-12.4c0-47.6-19.26-72.76-55.67-72.76-38,0-57.31,26-57.31,77.21v74.25c0,33.44,13,72.52,49.84,72.52,11.67,0,23.86-6.47,31.1-16.15L609.77,317l2.07,1.64h25.95l2.21-2.48V207.66l-2.22-2.49Z" transform="translate(0.5 0.5)"/><polygon class="4e4f8f48-b202-490f-b240-291fab1e4594" points="128.15 337.56 126.23 339.53 118.49 427.95 108.49 339.47 106.58 337.56 85.09 337.56 83.17 339.47 73 428.33 65.6 339.54 63.69 337.56 38.74 337.56 36.82 340.04 56.86 503.49 58.77 505.38 83.81 505.38 85.71 503.46 95.74 413.53 105.95 503.47 107.86 505.38 132.89 505.38 134.8 503.49 155.08 340.05 153.18 337.56 128.15 337.56"/><polygon class="4e4f8f48-b202-490f-b240-291fab1e4594" points="164.37 337.56 162.44 339.74 162.44 503.19 164.37 505.38 193.67 505.38 195.6 503.19 195.6 339.74 193.67 337.56 164.37 337.56"/><polygon class="4e4f8f48-b202-490f-b240-291fab1e4594" points="242.12 478.3 242.12 339.74 240.19 337.56 210.9 337.56 208.97 339.74 208.97 503.19 210.9 505.37 269 505.37 270.94 503.19 270.94 480.48 269 478.3 242.12 478.3"/><polygon class="4e4f8f48-b202-490f-b240-291fab1e4594" points="313.99 478.3 313.99 339.74 312.07 337.56 282.77 337.56 280.83 339.74 280.83 503.19 282.77 505.37 340.86 505.37 342.81 503.19 342.81 480.48 340.86 478.3 313.99 478.3"/><polygon class="4e4f8f48-b202-490f-b240-291fab1e4594" points="354.64 337.56 352.71 339.74 352.71 503.19 354.64 505.38 415.08 505.38 417.01 503.19 417.01 480.48 415.08 478.3 385.87 478.3 385.87 432.36 405.99 432.36 407.91 430.18 407.91 406.95 405.99 404.77 385.87 404.77 385.87 364.61 415.08 364.61 417.01 362.44 417.01 339.74 415.08 337.56 354.64 337.56"/><path class="4e4f8f48-b202-490f-b240-291fab1e4594" d="M496.2,337.06l-1.9,1.81-14.7,96.05-13.61-96-1.91-1.83H429l-1.94,2.18V502.68l1.94,2.19h21.65l1.92-2.18.52-91.28,14.07,91.64,1.91,1.82H491l1.89-1.87c2.39-17.64,5.47-37.87,8.46-57.43,1.6-10.49,3.23-21.17,4.76-31.55l.49,88.66,1.94,2.18h21.57l1.94-2.19V339.24l-1.94-2.18Z" transform="translate(0.5 0.5)"/><polygon class="4e4f8f48-b202-490f-b240-291fab1e4594" points="596.18 337.56 566.9 337.56 564.96 339.74 564.96 503.19 566.9 505.38 596.18 505.38 598.12 503.19 598.12 339.74 596.18 337.56"/><path class="4e4f8f48-b202-490f-b240-291fab1e4594" d="M153.8,522.4c-19.72,0-29.71,13.66-29.71,40.6v36.49C124.09,626,134.36,640,153.8,640c18.44,0,28.36-13.72,28.73-39.69l0-9.3-1.38-1.56H161.87L160.49,591v11.34c0,3,.09,12.16-3.06,15.76a4.65,4.65,0,0,1-3.64,1.59c-1.79,0-7.2,0-7.2-14.65V557.44c0-9.77,2.42-14.71,7.2-14.71,5.8,0,6.59,8.3,6.59,17.28v10.16l1.39,1.57h19.41l1.38-1.57v-9.5c0-25-9.94-38.27-28.76-38.27" transform="translate(0.5 0.5)"/><path class="4e4f8f48-b202-490f-b240-291fab1e4594" d="M219.92,522.4C200.07,522.4,190,536.06,190,563v37c0,26.13,10.34,39.94,29.91,39.94s30-14,30-40.49V563c0-26.94-10.09-40.6-30-40.6m7.46,82.66c0,9.87-2.44,14.67-7.46,14.67s-7.41-5-7.41-14.67V557.43c0-9.77,2.5-14.71,7.41-14.71s7.46,4.94,7.46,14.71v47.63Z" transform="translate(0.5 0.5)"/><polygon class="4e4f8f48-b202-490f-b240-291fab1e4594" points="259.37 525.04 257.98 526.59 257.98 636.78 259.37 638.33 298.54 638.33 299.92 636.78 299.92 621.47 298.54 619.92 280.5 619.92 280.5 526.59 279.11 525.04 259.37 525.04"/><polygon class="4e4f8f48-b202-490f-b240-291fab1e4594" points="307.8 525.04 306.43 526.59 306.43 636.78 307.8 638.33 346.98 638.33 348.36 636.78 348.36 621.47 346.98 619.92 328.94 619.92 328.94 526.59 327.55 525.04 307.8 525.04"/><polygon class="4e4f8f48-b202-490f-b240-291fab1e4594" points="356.25 525.04 354.86 526.59 354.86 636.78 356.25 638.33 397 638.33 398.38 636.78 398.38 621.47 397 619.92 377.38 619.92 377.38 589.12 390.86 589.12 392.25 587.56 392.25 571.89 390.86 570.34 377.38 570.34 377.38 543.45 397 543.45 398.38 541.88 398.38 526.59 397 525.04 356.25 525.04"/><path class="4e4f8f48-b202-490f-b240-291fab1e4594" d="M431.59,578l-1.39,1.56v16l1.39,1.56h9.79v7.26c0,10.14-2.57,15.27-7.63,15.27-1.9,0-7.68,0-7.68-14.65V557.44c0-14.71,5.77-14.71,7.68-14.71,5.46,0,7.69,4.83,7.69,16.74v7.71l1.38,1.57H461.7l1.38-1.57V560.7c0-25.05-10.13-38.28-29.32-38.28-20,0-30.18,13.66-30.18,40.61v38.8c0,17.61,6.88,38.17,26.28,38.17A21.32,21.32,0,0,0,446,631.81l1.64,5,1.29,1h13.58l1.38-1.56V579.62l-1.38-1.56H431.59Z" transform="translate(0.5 0.5)"/><polygon class="4e4f8f48-b202-490f-b240-291fab1e4594" points="474.63 525.04 473.25 526.59 473.25 636.78 474.63 638.33 515.37 638.33 516.75 636.78 516.75 621.47 515.37 619.92 495.76 619.92 495.76 589.12 509.24 589.12 510.62 587.56 510.62 571.89 509.24 570.34 495.76 570.34 495.76 543.45 515.37 543.45 516.75 541.88 516.75 526.59 515.37 525.04 474.63 525.04"/></svg>